<svg width="520" height="320" viewBox="0 0 520 320" fill="none" xmlns="http://www.w3.org/2000/svg">
  <rect width="520" height="320" rx="40" fill="url(#bg)"/>
  <circle cx="401" cy="95" r="74" fill="#22345C" fill-opacity="0.12"/>
  <circle cx="153" cy="219" r="84" fill="#9DC9BA" fill-opacity="0.24"/>
  <path d="M102 193C132 154 173 133 226 133C279 133 321 162 352 207C383 252 418 278 456 286" stroke="#1F335F" stroke-opacity="0.2" stroke-width="12" stroke-linecap="round"/>
  <path d="M123 214C151 182 186 166 230 166C274 166 309 186 340 223" stroke="#DD7A12" stroke-opacity="0.34" stroke-width="8" stroke-linecap="round"/>
  <g filter="url(#shadow)">
    <rect x="232" y="80" width="136" height="90" rx="24" fill="white"/>
    <rect x="256" y="108" width="70" height="12" rx="6" fill="#D9E3F1"/>
    <rect x="256" y="130" width="88" height="12" rx="6" fill="#D8E4D7"/>
  </g>
  <g filter="url(#shadow)">
    <rect x="127" y="165" width="132" height="82" rx="24" fill="white"/>
    <rect x="148" y="189" width="74" height="12" rx="6" fill="#F1DCC7"/>
    <rect x="148" y="211" width="89" height="12" rx="6" fill="#D9E3F1"/>
  </g>
  <defs>
    <filter id="shadow" x="111" y="70" width="273" height="193" filterUnits="userSpaceOnUse" color-interpolation-filters="sRGB">
      <feFlood flood-opacity="0" result="BackgroundImageFix"/>
      <feColorMatrix in="SourceAlpha" type="matrix" values="0 0 0 0 0 0 0 0 0 0 0 0 0 0 0 0 0 0 127 0" result="hardAlpha"/>
      <feOffset dy="10"/>
      <feGaussianBlur stdDeviation="8"/>
      <feColorMatrix type="matrix" values="0 0 0 0 0.121569 0 0 0 0 0.2 0 0 0 0 0.372549 0 0 0 0.08 0"/>
      <feBlend mode="normal" in2="BackgroundImageFix" result="effect1_dropShadow_1_1"/>
      <feBlend mode="normal" in="SourceGraphic" in2="effect1_dropShadow_1_1" result="shape"/>
    </filter>
    <linearGradient id="bg" x1="40" y1="34" x2="447" y2="279" gradientUnits="userSpaceOnUse">
      <stop stop-color="#FFFDF8"/>
      <stop offset="1" stop-color="#F5F8FD"/>
    </linearGradient>
  </defs>
</svg>
