<svg width="480" height="260" viewBox="0 0 480 260" fill="none" xmlns="http://www.w3.org/2000/svg">
  <rect width="480" height="260" rx="36" fill="url(#bg)"/>
  <circle cx="361" cy="74" r="56" fill="#1B2747" fill-opacity="0.16"/>
  <circle cx="141" cy="194" r="60" fill="#DD7A12" fill-opacity="0.12"/>
  <circle cx="259" cy="186" r="68" fill="#9DC9BA" fill-opacity="0.18"/>
  <path d="M92 173C123 137 165 118 217 118C269 118 309 144 341 186C359 209 383 224 408 229" stroke="#1B2747" stroke-opacity="0.28" stroke-width="12" stroke-linecap="round"/>
  <path d="M110 188C137 160 171 146 213 146C256 146 290 164 320 196" stroke="#DD7A12" stroke-opacity="0.32" stroke-width="8" stroke-linecap="round"/>
  <g filter="url(#shadow)">
    <rect x="274" y="98" width="114" height="74" rx="22" fill="white"/>
    <rect x="295" y="120" width="51" height="11" rx="5.5" fill="#D9E3F1"/>
    <rect x="295" y="141" width="67" height="11" rx="5.5" fill="#D8E4D7"/>
  </g>
  <g filter="url(#shadow)">
    <rect x="145" y="157" width="108" height="66" rx="20" fill="white"/>
    <rect x="164" y="177" width="54" height="10" rx="5" fill="#F1DCC7"/>
    <rect x="164" y="196" width="68" height="10" rx="5" fill="#D9E3F1"/>
  </g>
  <defs>
    <filter id="shadow" x="131" y="90" width="271" height="147" filterUnits="userSpaceOnUse" color-interpolation-filters="sRGB">
      <feFlood flood-opacity="0" result="BackgroundImageFix"/>
      <feColorMatrix in="SourceAlpha" type="matrix" values="0 0 0 0 0 0 0 0 0 0 0 0 0 0 0 0 0 0 127 0" result="hardAlpha"/>
      <feOffset dy="10"/>
      <feGaussianBlur stdDeviation="7"/>
      <feColorMatrix type="matrix" values="0 0 0 0 0.121569 0 0 0 0 0.2 0 0 0 0 0.372549 0 0 0 0.08 0"/>
      <feBlend mode="normal" in2="BackgroundImageFix" result="effect1_dropShadow_1_1"/>
      <feBlend mode="normal" in="SourceGraphic" in2="effect1_dropShadow_1_1" result="shape"/>
    </filter>
    <linearGradient id="bg" x1="24" y1="20" x2="428" y2="231" gradientUnits="userSpaceOnUse">
      <stop stop-color="#FCFBF7"/>
      <stop offset="1" stop-color="#F3F6FC"/>
    </linearGradient>
  </defs>
</svg>
